<?xml version="1.0" encoding="UTF-8"?>
<svg id="Vrstva_2" data-name="Vrstva 2" xmlns="http://www.w3.org/2000/svg" viewBox="0 0 271.96 260.34">
  <defs>
    <style>
      .cls-1 {
        fill: #e84b3c;
      }
    </style>
  </defs>
  <g id="Vrstva_1-2" data-name="Vrstva 1">
    <path class="cls-1" d="M135.98,0c-1.23,0-2.46.39-3.51,1.18L2.16,102.89c-2.44,1.93-2.89,5.49-.96,7.98,1.93,2.44,5.49,2.89,7.98.96l7.82-6.11v148.95c0,3.12,2.55,5.67,5.67,5.67h79.32v-101.98h67.99v101.98h79.32c3.12,0,5.67-2.55,5.67-5.67V105.72l7.82,6.11c1.08.79,2.26,1.2,3.51,1.2,1.7,0,3.34-.74,4.47-2.16,1.93-2.49,1.47-6.05-.96-7.98L139.49,1.18c-1.05-.79-2.28-1.18-3.51-1.18ZM192.64,22.38v5.95l33.99,26.51V22.38h-33.99Z"/>
  </g>
</svg>